<?xml version="1.0" encoding="UTF-8"?>
<svg xmlns="http://www.w3.org/2000/svg" id="Layer_1" data-name="Layer 1" viewBox="0 0 24 24">
  <path d="M1.454,6.651c-.689,.197-1.208,.728-1.388,1.422-.18,.693,.016,1.41,.522,1.915l3.412,3.408v6.586h6.594l3.435,3.43c.384,.383,.886,.587,1.408,.587,.169,0,.341-.021,.511-.066,.694-.18,1.225-.695,1.417-1.375L24,.004,1.454,6.651Zm-.159,2.629c-.253-.253-.351-.61-.261-.956,.09-.347,.35-.613,.699-.713L21.513,1.78,5,18.293v-5.311l-3.706-3.702Zm15.11,13.001c-.096,.338-.361,.594-.708,.684-.348,.09-.706-.008-.96-.262l-3.728-3.722H5.725L22.23,2.477l-5.826,19.805Z"/>
</svg>
