<svg xmlns="http://www.w3.org/2000/svg" viewBox="0 0 30 20">
  <rect width="30" height="20" fill="#DE2910"/>
  <!-- Ngôi sao lớn -->
  <polygon points="7,2.5 8.18,6.1 12,6.1 9,8.3 10.18,11.9 7,9.7 3.82,11.9 5,8.3 2,6.1 5.82,6.1" fill="#FFDE00"/>
  <!-- 4 ngôi sao nhỏ -->
  <polygon points="13,1 13.6,2.8 15.5,2.8 14,3.9 14.6,5.7 13,4.6 11.4,5.7 12,3.9 10.5,2.8 12.4,2.8" fill="#FFDE00"/>
  <polygon points="16,3.5 16.6,5.3 18.5,5.3 17,6.4 17.6,8.2 16,7.1 14.4,8.2 15,6.4 13.5,5.3 15.4,5.3" fill="#FFDE00"/>
  <polygon points="16,7.5 16.6,9.3 18.5,9.3 17,10.4 17.6,12.2 16,11.1 14.4,12.2 15,10.4 13.5,9.3 15.4,9.3" fill="#FFDE00"/>
  <polygon points="13,10 13.6,11.8 15.5,11.8 14,12.9 14.6,14.7 13,13.6 11.4,14.7 12,12.9 10.5,11.8 12.4,11.8" fill="#FFDE00"/>
</svg>
